<svg width="16" height="16" viewBox="0 0 16 16" fill="none" xmlns="http://www.w3.org/2000/svg">
<path fill-rule="evenodd" clip-rule="evenodd" d="M1.875 1C1.39175 1 1 1.39175 1 1.875V14.125C1 14.6082 1.39175 15 1.875 15C2.35825 15 2.75 14.6082 2.75 14.125V1.875C2.75 1.39175 2.35825 1 1.875 1Z" fill="#6C7688"/>
<path fill-rule="evenodd" clip-rule="evenodd" d="M8.77396 1.86689C8.42431 2.20047 8.41127 2.75433 8.74485 3.10399L12.5809 7.125H5.875C5.39175 7.125 5 7.51675 5 8C5 8.48325 5.39175 8.875 5.875 8.875H12.5134L8.75906 12.6315C8.41745 12.9733 8.4176 13.5273 8.75941 13.8689C9.10121 14.2105 9.65523 14.2103 9.99685 13.8685L15.2439 8.61854C15.4144 8.44793 15.5 8.22406 15.5 8C15.5 7.78272 15.4196 7.56526 15.2581 7.39601L10.0111 1.89601C9.67748 1.54636 9.12362 1.53332 8.77396 1.86689Z" fill="#6C7688"/>
</svg>
