<svg width="16" height="16" viewBox="0 0 16 16" fill="none" xmlns="http://www.w3.org/2000/svg">
<path fill-rule="evenodd" clip-rule="evenodd" d="M8 10C9.10457 10 10 9.10457 10 8C10 6.89543 9.10457 6 8 6C6.89543 6 6 6.89543 6 8C6 9.10457 6.89543 10 8 10ZM8 11.5C9.933 11.5 11.5 9.933 11.5 8C11.5 6.067 9.933 4.5 8 4.5C6.067 4.5 4.5 6.067 4.5 8C4.5 9.933 6.067 11.5 8 11.5Z" fill="#6C7688"/>
<path fill-rule="evenodd" clip-rule="evenodd" d="M7.40922 14.5H8.59086L8.64289 13.6676C8.68608 12.9765 9.12646 12.4062 9.7222 12.1591C10.3207 11.9109 11.0352 12.0054 11.553 12.4622L12.1784 13.014L13.014 12.1785L12.4622 11.5531C12.0053 11.0354 11.9109 10.3208 12.1591 9.72222C12.4062 9.12646 12.9766 8.68604 13.6677 8.64285L14.5 8.59082V7.40918L13.6676 7.35715C12.9766 7.31396 12.4062 6.87355 12.1592 6.27781C11.9109 5.67926 12.0054 4.9647 12.4622 4.44695L13.0139 3.82163L12.1784 2.98608L11.5531 3.53784C11.0353 3.99467 10.3208 4.0891 9.72223 3.84089C9.12649 3.59384 8.68608 3.02347 8.64289 2.33241L8.59086 1.5H7.40922L7.35719 2.33236C7.314 3.02345 6.87358 3.59384 6.27783 3.8409C5.67925 4.08913 4.96467 3.99471 4.4469 3.53785L3.82157 2.98609L2.98602 3.82164L3.53788 4.44708C3.99469 4.9648 4.08912 5.67931 3.84092 6.27784C3.59388 6.87357 3.02353 7.31396 2.33249 7.35715L1.50004 7.40917V8.59082L2.33245 8.64285C3.02351 8.68604 3.59388 9.12643 3.84093 9.72218C4.08914 10.3207 3.99471 11.0353 3.53789 11.553L2.98601 12.1785L3.82156 13.014L4.44701 12.4622C4.96475 12.0053 5.6793 11.9109 6.27785 12.1591C6.8736 12.4062 7.314 12.9765 7.35719 13.6676L7.40922 14.5ZM4.5139 14.3779C4.57755 14.3386 4.6387 14.2934 4.69659 14.2424L5.43944 13.5869C5.51171 13.5231 5.61422 13.5078 5.70326 13.5447C5.79223 13.5816 5.8541 13.665 5.86011 13.7612L5.9219 14.7498C5.92672 14.8269 5.93801 14.902 5.95523 14.9748C5.96532 15.0175 5.97744 15.0593 5.99149 15.1002C6.17214 15.6264 6.67098 16 7.25264 16H8.74744C9.32907 16 9.82789 15.6264 10.0086 15.1003C10.0226 15.0594 10.0347 15.0175 10.0448 14.9749C10.0621 14.9021 10.0734 14.8269 10.0782 14.7498L10.14 13.7611C10.146 13.665 10.2078 13.5816 10.2968 13.5447C10.3858 13.5078 10.4883 13.5232 10.5605 13.5869L11.3034 14.2424C11.3613 14.2935 11.4225 14.3387 11.4861 14.378C11.5234 14.401 11.5616 14.422 11.6004 14.441C12.1002 14.6852 12.7171 14.5967 13.1284 14.1854L14.1853 13.1284C14.5967 12.7171 14.6852 12.1002 14.4409 11.6004C14.4219 11.5616 14.4009 11.5234 14.3779 11.4862C14.3386 11.4225 14.2934 11.3614 14.2423 11.3035L13.5869 10.5607C13.5232 10.4884 13.5078 10.3859 13.5447 10.2968C13.5816 10.2078 13.6651 10.1459 13.7612 10.1399L14.7499 10.0781C14.8269 10.0733 14.9021 10.062 14.9748 10.0448C15.0175 10.0347 15.0593 10.0226 15.1002 10.0086C15.6264 9.82795 16 9.32909 16 8.7474V7.2526C16 6.67093 15.6264 6.17209 15.1003 5.99144C15.0594 5.9774 15.0175 5.96527 14.9749 5.95519C14.9021 5.93797 14.8269 5.92668 14.7499 5.92186L13.7612 5.86007C13.6651 5.85406 13.5816 5.79219 13.5447 5.70321C13.5078 5.61417 13.5232 5.51166 13.587 5.43938L14.2423 4.69666C14.2934 4.63873 14.3386 4.57754 14.3779 4.51384C14.4009 4.47658 14.4219 4.43846 14.4409 4.39963C14.6852 3.89987 14.5966 3.28297 14.1853 2.87168L13.1283 1.8147C12.7171 1.40342 12.1002 1.31487 11.6004 1.55913C11.5616 1.57811 11.5235 1.5991 11.4862 1.6221C11.4225 1.66142 11.3613 1.70662 11.3034 1.75773L10.5606 2.41309C10.4884 2.47686 10.3859 2.49223 10.2968 2.4553C10.2078 2.41841 10.146 2.33497 10.14 2.23884L10.0782 1.25016C10.0734 1.17312 10.0621 1.09795 10.0449 1.02516C10.0348 0.982504 10.0226 0.940667 10.0086 0.899751C9.82794 0.373623 9.3291 0 8.74744 0H7.25264C6.67095 0 6.17209 0.373663 5.99146 0.899834C5.97742 0.940737 5.9653 0.982562 5.95522 1.0252C5.93801 1.09798 5.92672 1.17314 5.92191 1.25016L5.86012 2.2388C5.85411 2.33495 5.79222 2.41842 5.70322 2.45532C5.61416 2.49225 5.51163 2.47688 5.43933 2.41309L4.6966 1.75774C4.6387 1.70665 4.57753 1.66146 4.51385 1.62215C4.4766 1.59915 4.43848 1.57817 4.39966 1.55919C3.89989 1.31487 3.28294 1.40341 2.87163 1.81472L1.81465 2.8717C1.40337 3.28298 1.31482 3.89987 1.55907 4.39963C1.57806 4.43848 1.59906 4.47662 1.62207 4.5139C1.66138 4.57758 1.70658 4.63876 1.75767 4.69667L2.41312 5.43951C2.47688 5.51177 2.49224 5.61425 2.45533 5.70326C2.41845 5.79221 2.33503 5.85406 2.23892 5.86007L1.2502 5.92186C1.17315 5.92668 1.09796 5.93797 1.02516 5.9552C0.982493 5.96529 0.940644 5.97742 0.899716 5.99147C0.373629 6.17215 4.19617e-05 6.67097 4.19617e-05 7.2526V8.7474C4.19617e-05 9.32905 0.373661 9.82789 0.899783 10.0085C0.9407 10.0226 0.982539 10.0347 1.0252 10.0448C1.09799 10.062 1.17316 10.0733 1.2502 10.0781L2.23889 10.1399C2.33501 10.1459 2.41845 10.2078 2.45534 10.2968C2.49226 10.3858 2.4769 10.4883 2.41313 10.5606L1.75766 11.3034C1.70659 11.3613 1.66141 11.4225 1.62211 11.4861C1.5991 11.5234 1.5781 11.5615 1.55911 11.6004C1.31479 12.1001 1.40332 12.7171 1.81464 13.1284L2.87162 14.1854C3.28293 14.5967 3.89989 14.6852 4.39967 14.4409C4.43851 14.4219 4.47663 14.4009 4.5139 14.3779Z" fill="#6C7688"/>
</svg>
